<?xml version="1.0" standalone="no"?>
<!DOCTYPE svg PUBLIC "-//W3C//DTD SVG 20010904//EN"
 "http://www.w3.org/TR/2001/REC-SVG-20010904/DTD/svg10.dtd">
<svg version="1.0" xmlns="http://www.w3.org/2000/svg"
 width="184.000000pt" height="184.000000pt" viewBox="0 0 184.000000 184.000000"
 preserveAspectRatio="xMidYMid meet">
<metadata>
Created by potrace 1.11, written by Peter Selinger 2001-2013
</metadata>
<g transform="translate(0.000000,184.000000) scale(0.100000,-0.100000)"
fill="#000000" stroke="none">
<path d="M415 1324 c-35 -14 -61 -20 -63 -14 -11 33 -82 -9 -82 -48 0 -8 -23
-39 -51 -70 -118 -133 -226 -334 -217 -408 4 -36 26 -41 56 -13 28 25 23 35
-8 19 -22 -12 -22 -11 -15 26 11 61 89 202 156 282 34 40 63 72 65 70 3 -3
-108 -600 -121 -650 -5 -21 -3 -28 6 -28 30 0 38 19 59 134 l21 119 69 76
c268 298 329 378 337 440 5 33 1 41 -27 64 -41 35 -103 35 -185 1z m149 -30
c37 -36 11 -102 -86 -220 -97 -118 -236 -269 -242 -263 -2 2 15 92 38 199 l42
195 54 38 c51 35 123 65 162 66 9 1 24 -6 32 -15z"/>
<path d="M792 1248 c-7 -7 -12 -20 -12 -31 0 -10 -11 -33 -25 -51 -43 -57 -96
-177 -122 -276 -29 -116 -44 -322 -23 -335 19 -12 46 26 66 91 13 39 21 51 29
44 14 -12 30 5 68 70 44 77 53 86 70 72 11 -10 16 -44 18 -156 3 -102 8 -148
18 -160 16 -19 62 -21 79 -4 10 10 16 7 28 -10 21 -31 58 -28 83 6 11 16 65
104 120 197 56 93 101 164 101 158 0 -5 -20 -88 -45 -183 -34 -131 -42 -176
-33 -181 18 -11 33 5 57 62 25 58 117 215 130 224 6 3 6 -7 0 -27 -5 -18 -9
-67 -9 -109 0 -79 14 -109 52 -109 33 0 75 83 104 205 l14 60 -6 -92 c-5 -95
4 -133 31 -133 8 0 22 11 30 24 17 26 68 176 62 182 -8 9 -36 -33 -54 -80 -29
-78 -44 -72 -38 16 18 241 14 218 43 218 15 0 69 -9 120 -19 50 -10 92 -14 92
-10 0 20 -79 49 -207 75 -20 4 -21 8 -16 64 4 38 2 60 -5 60 -13 0 -32 -54
-32 -91 0 -26 -7 -32 -64 -58 -55 -25 -86 -52 -86 -75 0 -13 28 -4 45 14 16
18 84 44 92 36 5 -5 -54 -221 -73 -271 -16 -41 -41 -75 -55 -75 -21 0 -21 76
0 159 26 109 26 111 -3 111 -30 0 -56 -32 -125 -155 -28 -50 -51 -87 -51 -84
0 3 18 68 40 144 31 105 38 141 29 151 -19 23 -44 0 -100 -93 -107 -178 -179
-283 -194 -283 -28 0 -18 58 15 92 46 45 134 230 126 262 -4 15 -13 29 -21 33
-22 8 -82 -42 -115 -94 -29 -45 -60 -156 -60 -211 0 -39 -43 -80 -65 -62 -11
9 -15 34 -15 105 0 112 -14 196 -37 212 -15 12 -14 17 11 60 51 90 70 138 74
195 7 87 -33 137 -96 119 -17 -5 -34 -5 -39 0 -5 5 -14 4 -21 -3z m104 -65 c9
-21 13 -49 10 -66 -9 -44 -96 -234 -114 -249 -8 -7 -29 -31 -45 -53 -17 -22
-27 -31 -22 -20 13 35 95 366 95 384 0 16 30 38 53 40 4 1 15 -16 23 -36z
m-141 -174 c-35 -143 -97 -338 -116 -368 -15 -23 -2 157 16 237 8 35 25 87 37
115 26 62 88 170 94 164 2 -2 -12 -68 -31 -148z m385 -150 c0 -26 -61 -143
-95 -184 l-26 -30 7 44 c8 58 30 108 66 154 33 42 48 47 48 16z"/>
<path d="M408 683 c-8 -10 -18 -37 -22 -60 -5 -38 -4 -43 13 -43 21 0 26 10
36 78 7 45 -2 53 -27 25z"/>
</g>
</svg>
